<?xml version="1.0" encoding="utf-8"?>
<!-- Generator: Adobe Illustrator 21.1.0, SVG Export Plug-In . SVG Version: 6.00 Build 0)  -->
<svg version="1.1" id="Layer_1" xmlns="http://www.w3.org/2000/svg" xmlns:xlink="http://www.w3.org/1999/xlink" x="0px" y="0px"
	 viewBox="0 0 150 50" style="enable-background:new 0 0 150 50;" xml:space="preserve">
<style type="text/css">
	.st0{fill:#FFFFFF;}
	.st1{fill:#58595B;}
</style>
<title>appleSrore</title>
<path class="st0" d="M121.8,43.7H27.7c-2.8,0-5-2.2-5-5v-27c0-2.8,2.2-5,5-5h94.1c2.8,0,5,2.2,5,5c0,0,0,0,0,0v27
	C126.8,41.4,124.5,43.7,121.8,43.7z"/>
<g>
	<path class="st1" d="M36.9,16.3h1.9c0.1,0,0.2-0.1,0.3-0.2c0-0.1-0.1-0.2-0.2-0.3c0,0-0.1,0-0.1,0h-1.9c-0.1,0-0.2,0.1-0.2,0.3
		C36.7,16.3,36.8,16.3,36.9,16.3z M37.9,33.4c-0.6,0-1,0.5-1,1c0,0.6,0.5,1,1,1s1-0.5,1-1l0,0C38.9,33.8,38.4,33.4,37.9,33.4z
		 M32.9,32.5h9.9V17.8h-9.9L32.9,32.5z M64.7,27.7c-0.5,0-0.9,0.2-1.3,0.5c-0.4,0.3-0.6,0.7-0.7,1.2c-0.1,0.2-0.1,0.4-0.1,0.6v1.4
		c0,0.6,0.2,1.1,0.6,1.6c0.4,0.4,0.9,0.7,1.5,0.6c0.7,0,1.3-0.3,1.7-0.9c0.4-0.6,0.6-1.4,0.6-2.2c0-0.7-0.2-1.5-0.6-2.1
		C66.1,28,65.4,27.7,64.7,27.7L64.7,27.7z M99.6,27.6c-0.7,0-1.4,0.4-1.7,1c-0.4,0.6-0.5,1.3-0.5,2.1c0,0.7,0.2,1.4,0.5,2
		c0.3,0.6,1,1,1.7,1c0.7,0,1.4-0.4,1.7-1c0.4-0.6,0.6-1.3,0.5-2c0-0.7-0.2-1.4-0.5-2C101,28,100.3,27.6,99.6,27.6z M74.2,27.7
		c-0.5,0-0.9,0.2-1.3,0.5c-0.4,0.3-0.7,0.7-0.8,1.2c-0.1,0.2-0.1,0.4-0.1,0.6v1.4c0,0.6,0.2,1.1,0.6,1.6c0.4,0.4,0.9,0.6,1.5,0.6
		c0.7,0,1.3-0.3,1.7-0.9c0.4-0.6,0.6-1.4,0.6-2.2c0-0.7-0.2-1.4-0.6-2C75.5,28,74.8,27.7,74.2,27.7L74.2,27.7z M54.5,24.6L54.5,24.6
		c-0.1,0.5-0.3,1.3-0.6,2.2l-1,3.1H56l-1-3.1C54.9,26.6,54.7,25.8,54.5,24.6z M114,27.5c-0.6,0-1.2,0.3-1.5,0.8
		c-0.3,0.4-0.5,0.9-0.6,1.5h4c0-0.5-0.1-1-0.4-1.5C115.2,27.8,114.7,27.5,114,27.5z M62.9,19c0-0.1,0-0.2,0-0.2v-0.6
		c-0.8,0-1.5,0.2-1.5,0.9c0,0.3,0.2,0.6,0.5,0.6c0,0,0.1,0,0.1,0C62.4,19.7,62.8,19.4,62.9,19z M52.5,16.2c-0.1-0.4-0.2-0.8-0.3-1.1
		l0,0c-0.1,0.4-0.2,0.8-0.3,1.1l-0.5,1.5h1.6L52.5,16.2z M115.8,15.8c1.1,0,1.9,0.9,1.9,1.9c0,0.1,0,0.1,0,0.2c0,0.2,0,0.3,0,0.5h-3
		c0,0.7,0.6,1.2,1.2,1.2c0,0,0.1,0,0.1,0c0.4,0,0.8-0.1,1.2-0.2l0.2,0.8c-0.5,0.2-1,0.3-1.5,0.3c-1.2,0.1-2.2-0.8-2.2-1.9
		c0-0.1,0-0.2,0-0.3C113.6,16.9,114.5,15.9,115.8,15.8C115.7,15.8,115.8,15.8,115.8,15.8L115.8,15.8z M98.1,15.9l0.1,0.7l0,0
		c0.3-0.5,0.8-0.8,1.4-0.8c0.8,0,1.6,0.5,1.6,1.9v2.6H100v-2.5c0-0.6-0.2-1.1-0.9-1.1c-0.4,0-0.7,0.3-0.9,0.7c0,0.1-0.1,0.2-0.1,0.4
		v2.6h-1.1v-3.1c0-0.5,0-0.9,0-1.3H98.1z M86.3,15.8c1.1,0,1.9,0.9,1.9,1.9c0,0.1,0,0.1,0,0.2c0,0.2,0,0.3,0,0.5h-3
		c0,0.7,0.6,1.2,1.2,1.2c0,0,0.1,0,0.1,0c0.4,0,0.9-0.1,1.3-0.2l0.2,0.8c-0.5,0.2-1,0.3-1.5,0.3c-1.1,0.1-2.2-0.7-2.3-1.8
		c0-0.1,0-0.3,0-0.4c-0.1-1.2,0.8-2.3,2-2.3C86.3,15.8,86.3,15.8,86.3,15.8L86.3,15.8z M81.8,13.8h1.1v6.5h-1.1V13.8z M72.9,16.6
		c-0.4,0-0.8,0.1-1.2,0.3l-0.2-0.7c0.5-0.3,1-0.4,1.6-0.4c0.9-0.1,1.7,0.6,1.8,1.5c0,0.1,0,0.3,0,0.4v1.6c0,0.4,0,0.7,0,1.1h-1
		l-0.1-0.5l0,0c-0.3,0.4-0.8,0.6-1.3,0.6c-0.7,0-1.3-0.5-1.4-1.2c0,0,0-0.1,0-0.1c0-1.1,1-1.7,2.6-1.7v-0.1
		C73.8,17.1,73.7,16.6,72.9,16.6L72.9,16.6z M66.3,14c0.3,0,0.6,0.3,0.6,0.6s-0.3,0.6-0.6,0.6c-0.3,0-0.6-0.3-0.6-0.6
		C65.7,14.3,65.9,14,66.3,14C66.3,14.1,66.3,14.1,66.3,14L66.3,14z M66.8,15.9v4.4h-1.1v-4.4L66.8,15.9z M51.5,14.1h1.4l2,6.1h-1.2
		l-0.6-1.7h-1.9l-0.5,1.7h-1.2L51.5,14.1z M44,34.5c0,1.1-0.9,2-2,2h-8.4c-1.1,0-1.9-0.9-2-2V15.9c0-1.1,0.9-1.9,2-2h8.4
		c1.1,0,1.9,0.9,1.9,2V34.5z M57.5,34.9l-1.1-3.5h-3.9l-1.1,3.5h-2L53.3,23h2.4l3.9,11.9H57.5z M57.9,20.3h-1.1l-1.7-4.4h1.2
		l0.7,2.2c0.1,0.4,0.2,0.7,0.3,1.1l0,0c0.1-0.4,0.2-0.7,0.3-1.1l0.7-2.2h1.2L57.9,20.3z M60.2,19.1c0-1.1,1-1.7,2.6-1.7v-0.1
		c0-0.3-0.1-0.8-0.9-0.8c-0.4,0-0.8,0.1-1.2,0.3l-0.2-0.7c0.5-0.3,1-0.4,1.6-0.4c0.9-0.1,1.7,0.6,1.8,1.5c0,0.1,0,0.3,0,0.4v1.6
		c0,0.4,0,0.7,0.1,1.1h-1L63,19.9l0,0c-0.3,0.4-0.8,0.6-1.3,0.6c-0.7,0.1-1.4-0.5-1.4-1.2C60.3,19.2,60.3,19.2,60.2,19.1L60.2,19.1z
		 M67.7,34C67,34.7,66,35.2,65,35.1c-1,0.1-1.9-0.4-2.5-1.2v4.5h-1.9v-9.2c0-0.9,0-1.9-0.1-2.8h1.7l0.1,1.4l0,0
		c1.1-1.6,3.2-2,4.8-0.9c0.2,0.2,0.5,0.4,0.7,0.6c0.7,0.9,1.1,2,1,3.2C69,31.8,68.6,33.1,67.7,34L67.7,34z M69.7,20.3h-1.1v-6.5h1.1
		V20.3z M77.1,34c-0.7,0.7-1.6,1.1-2.6,1.1c-1,0.1-1.9-0.4-2.5-1.2v4.5h-1.9v-9.2c0-0.9,0-1.9-0.1-2.8h1.7l0.1,1.4l0,0
		c1.1-1.6,3.2-2,4.8-0.9c0.2,0.2,0.5,0.4,0.7,0.6c0.7,0.9,1.1,2,1,3.2C78.4,31.8,78,33.1,77.1,34L77.1,34z M78.4,20.4
		c-0.6,0-1.1-0.3-1.4-0.8l0,0L77,20.3H76c0-0.3,0-0.8,0-1.2v-5.2h1.1v2.7l0,0c0.3-0.5,0.9-0.7,1.4-0.7c1.1,0,1.8,0.9,1.8,2.2
		c0.1,1.2-0.7,2.2-1.8,2.4C78.6,20.4,78.5,20.4,78.4,20.4L78.4,20.4z M88.1,34.1c-0.9,0.7-2.1,1.1-3.2,1c-1.1,0.1-2.1-0.2-3.1-0.7
		l0.4-1.6c0.8,0.5,1.8,0.7,2.8,0.7c0.6,0,1.2-0.1,1.7-0.5c0.4-0.3,0.6-0.8,0.6-1.3c0-0.5-0.2-0.9-0.5-1.2c-0.5-0.4-1-0.7-1.6-0.9
		C83,28.8,82,27.7,82,26.1c0-0.9,0.4-1.8,1.1-2.4c0.8-0.7,1.9-1,2.9-0.9c0.9,0,1.9,0.2,2.7,0.6L88.2,25c-0.7-0.4-1.5-0.6-2.3-0.6
		c-0.6,0-1.1,0.1-1.6,0.5c-0.3,0.3-0.5,0.7-0.5,1.1c0,0.4,0.2,0.9,0.6,1.1c0.5,0.4,1.1,0.7,1.7,0.9c0.9,0.3,1.6,0.8,2.3,1.5
		c0.5,0.6,0.7,1.3,0.7,2.1C89.2,32.5,88.8,33.5,88.1,34.1z M94.8,27.8h-2.1V32c0,1.1,0.4,1.6,1.1,1.6c0.3,0,0.6,0,0.9-0.1l0.1,1.5
		c-0.5,0.2-1,0.2-1.5,0.2c-0.7,0-1.3-0.2-1.8-0.7c-0.5-0.7-0.7-1.5-0.6-2.3v-4.3h-1.3v-1.5h1.3v-1.6l1.9-0.6v2.1h2.1L94.8,27.8z
		 M93.7,20.4c-1.2,0-2.2-0.9-2.2-2.1c0-0.1,0-0.1,0-0.2c-0.1-1.2,0.8-2.3,2-2.3c0.1,0,0.2,0,0.3,0c1.2,0,2.2,0.9,2.2,2
		c0,0.1,0,0.2,0,0.2c0.1,1.2-0.8,2.3-2,2.4C93.9,20.4,93.8,20.4,93.7,20.4L93.7,20.4z M102.6,33.8c-0.8,0.9-2,1.4-3.1,1.3
		c-1.1,0.1-2.2-0.4-3-1.2c-0.8-0.9-1.2-2-1.1-3.2c0-1.2,0.4-2.4,1.2-3.3c0.8-0.9,1.9-1.3,3.1-1.3c1.2,0,2.3,0.4,3,1.3
		c0.7,0.9,1.1,2,1.1,3.1C103.8,31.8,103.4,32.9,102.6,33.8L102.6,33.8z M104.6,15.9h0.6V15l1.1-0.3v1.1h1.1v0.9h-1.1v2
		c0,0.5,0.1,0.9,0.6,0.9c0.1,0,0.3,0,0.4,0v0.9c-0.3,0.1-0.5,0.1-0.8,0.1c-0.4,0-0.7-0.1-1-0.4c-0.3-0.4-0.4-0.8-0.4-1.2v-2.1h-0.6
		L104.6,15.9z M109.5,28c-0.2,0-0.4-0.1-0.6-0.1c-0.6,0-1.2,0.3-1.6,0.8c-0.3,0.5-0.5,1.1-0.5,1.7V35H105v-5.9c0-1,0-1.9-0.1-2.7
		h1.7l0.1,1.6h0.1c0.2-0.5,0.5-1,1-1.4c0.4-0.3,0.9-0.5,1.4-0.5c0.2,0,0.3,0,0.5,0L109.5,28z M109.8,17.7v2.6h-1.1v-6.5h1.1v2.6l0,0
		c0.1-0.2,0.3-0.4,0.6-0.5c0.2-0.1,0.5-0.2,0.8-0.2c0.8,0,1.5,0.5,1.5,1.9v2.6h-1.1v-2.4c0-0.6-0.2-1.1-0.9-1.1
		c-0.4,0-0.7,0.3-0.9,0.6C109.8,17.4,109.8,17.6,109.8,17.7L109.8,17.7z M117.7,31.1H112c0,0.7,0.3,1.5,0.9,1.9
		c0.5,0.4,1.2,0.6,1.9,0.6c0.8,0,1.6-0.1,2.3-0.4l0.3,1.3c-0.9,0.4-1.9,0.6-2.9,0.5c-1.2,0.1-2.3-0.4-3.1-1.2
		c-0.8-0.9-1.2-2-1.1-3.2c0-1.2,0.3-2.3,1.1-3.2c0.7-0.9,1.8-1.4,3-1.4c1.1-0.1,2.2,0.5,2.8,1.4c0.5,0.8,0.8,1.8,0.8,2.7
		C117.8,30.5,117.7,30.8,117.7,31.1L117.7,31.1z M78.2,16.7c-0.5,0-0.9,0.4-1,0.9c0,0.1,0,0.2,0,0.3v0.7c0,0.1,0,0.2,0,0.3
		c0.1,0.5,0.5,0.8,1,0.8c0.7,0,1.1-0.6,1.1-1.5C79.4,17.2,79,16.7,78.2,16.7z M86.3,16.6c-0.6,0-1,0.5-1,1.1h1.9
		c0.1-0.5-0.3-1-0.8-1.1C86.3,16.6,86.3,16.6,86.3,16.6z M93.8,16.6c-0.8,0-1.1,0.8-1.1,1.5s0.4,1.5,1.1,1.5s1.1-0.6,1.1-1.5
		C94.9,17.4,94.5,16.6,93.8,16.6z M72.3,19c0,0.3,0.2,0.6,0.5,0.6c0,0,0.1,0,0.1,0c0.4,0,0.7-0.2,0.9-0.6c0-0.1,0-0.2,0-0.2v-0.6
		C73,18.1,72.3,18.3,72.3,19z M115.7,16.6c-0.6,0-1,0.5-1,1.1h1.9c0.1-0.5-0.3-1-0.8-1.1C115.8,16.6,115.8,16.6,115.7,16.6
		L115.7,16.6z"/>
	<path class="st1" d="M121.8,43.7H27.7c-2.8,0-5-2.2-5-5v-27c0-2.8,2.2-5,5-5h94.1c2.8,0,5,2.2,5,5c0,0,0,0,0,0v27
		C126.8,41.4,124.5,43.7,121.8,43.7z M27.7,8c-2,0-3.7,1.7-3.7,3.7v27c0,2,1.7,3.7,3.7,3.7h94.1c2,0,3.7-1.7,3.7-3.7v-27
		c0-2-1.7-3.7-3.7-3.7l0,0H27.7z"/>
</g>
</svg>
