<svg id="Layer_1" data-name="Layer 1" xmlns="http://www.w3.org/2000/svg" width="50" height="50" viewBox="0 0 50 50">
  <title>fordel1</title>
  <path d="M37.54,18.3V16.89a11.89,11.89,0,0,0-23.78,0V18a5,5,0,0,0-4.32,4.91V40a5,5,0,0,0,5,5H35.81a5,5,0,0,0,5-5V22.95A5,5,0,0,0,37.54,18.3ZM15.92,16.89a9.73,9.73,0,0,1,19.46,0V18H31.05V16.89a5.41,5.41,0,0,0-10.81,0V18H15.92Zm13,1.08H22.41V16.89a3.24,3.24,0,0,1,6.49,0ZM38.62,40a2.81,2.81,0,0,1-2.81,2.81H14.41A2.81,2.81,0,0,1,11.59,40V22.95a2.81,2.81,0,0,1,2.81-2.81H35.81a2.81,2.81,0,0,1,2.81,2.81Z" fill="#fff"/>
</svg>
