<?xml version="1.0" encoding="utf-8"?>
<!-- Generator: Adobe Illustrator 21.1.0, SVG Export Plug-In . SVG Version: 6.00 Build 0)  -->
<svg version="1.1" id="Layer_1" xmlns="http://www.w3.org/2000/svg" xmlns:xlink="http://www.w3.org/1999/xlink" x="0px" y="0px"
	 viewBox="0 0 50 50" style="enable-background:new 0 0 50 50;" xml:space="preserve">
<style type="text/css">
	.st0{fill:#FFFFFF;}
</style>
<title>fordel1clock-01</title>
<g>
	<path class="st0" d="M27.8,13.6v-2.1h0.9c0.5,0,0.9-0.4,0.9-0.9s-0.4-0.9-0.9-0.9h-7.4c-0.5,0-0.9,0.4-0.9,0.9s0.4,0.9,0.9,0.9h0.9
		v2.1c-10.1,1.5-17,11-15.5,21s11,17,21,15.5c10.1-1.5,17-11,15.5-21C42.1,21.1,35.8,14.8,27.8,13.6z M24.1,13.4v-1.8h1.8v1.8H24.1z
		 M25,48.5c-9.2,0-16.6-7.4-16.6-16.6S15.8,15.2,25,15.2s16.6,7.4,16.6,16.6S34.2,48.5,25,48.5z"/>
	<path class="st0" d="M25,17.1c-8.2,0-14.8,6.6-14.8,14.8S16.8,46.6,25,46.6S39.8,40,39.8,31.8S33.2,17.1,25,17.1z M25,44.8
		c-7.1,0-12.9-5.8-12.9-12.9S17.9,18.9,25,18.9s12.9,5.8,12.9,12.9S32.1,44.8,25,44.8L25,44.8z"/>
	<path class="st0" d="M31.7,23.8l-5.5,5.5c-1.4-0.7-3-0.1-3.7,1.3c0,0.1-0.1,0.2-0.1,0.2h-6.6c-0.5,0-0.9,0.4-0.9,0.9
		s0.4,0.9,0.9,0.9h6.6c0.5,1.5,2,2.3,3.5,1.8s2.3-2,1.8-3.5c0-0.2-0.1-0.3-0.2-0.5l5.5-5.5c0.3-0.4,0.3-1-0.1-1.3
		C32.6,23.5,32.1,23.5,31.7,23.8z M25,32.8c-0.5,0-0.9-0.4-0.9-0.9c0-0.5,0.4-0.9,0.9-0.9c0,0.5,0.4,0.9,0.9,0.9
		C25.9,32.4,25.5,32.8,25,32.8z"/>
</g>
</svg>
