<?xml version="1.0" encoding="utf-8"?>
<!-- Generator: Adobe Illustrator 21.1.0, SVG Export Plug-In . SVG Version: 6.00 Build 0)  -->
<svg version="1.1" id="Layer_1" xmlns="http://www.w3.org/2000/svg" xmlns:xlink="http://www.w3.org/1999/xlink" x="0px" y="0px"
	 viewBox="0 0 50 50" style="enable-background:new 0 0 50 50;" xml:space="preserve">
<style type="text/css">
	.st0{fill:#FF0000;}
</style>
<path d="M27.8,7.6V5.5h0.9c0.5,0,0.9-0.4,0.9-0.9s-0.4-0.9-0.9-0.9h-7.4c-0.5,0-0.9,0.4-0.9,0.9s0.4,0.9,0.9,0.9h0.9v2.1
	c-10.1,1.5-17,11-15.5,21s11,17,21,15.5c10.1-1.5,17-11,15.5-21C42.1,15.1,35.8,8.8,27.8,7.6z M24.1,7.4V5.6h1.8v1.8
	C25.9,7.4,24.1,7.4,24.1,7.4z M25,42.5c-9.2,0-16.6-7.4-16.6-16.6S15.8,9.2,25,9.2s16.6,7.4,16.6,16.6S34.2,42.5,25,42.5z"/>
<path d="M25,11.1c-8.2,0-14.8,6.6-14.8,14.8S16.8,40.6,25,40.6S39.8,34,39.8,25.8S33.2,11.1,25,11.1z M25,38.8
	c-7.1,0-12.9-5.8-12.9-12.9s5.8-13,12.9-13s12.9,5.8,12.9,12.9S32.1,38.8,25,38.8L25,38.8z"/>
<path class="st0" d="M31.7,17.8l-5.5,5.5c-1.4-0.7-3-0.1-3.7,1.3c0,0.1-0.1,0.2-0.1,0.2h-6.6c-0.5,0-0.9,0.4-0.9,0.9
	s0.4,0.9,0.9,0.9h6.6c0.5,1.5,2,2.3,3.5,1.8s2.3-2,1.8-3.5c0-0.2-0.1-0.3-0.2-0.5l5.5-5.5c0.3-0.4,0.3-1-0.1-1.3
	C32.6,17.5,32.1,17.5,31.7,17.8z M25,26.8c-0.5,0-0.9-0.4-0.9-0.9S24.5,25,25,25c0,0.5,0.4,0.9,0.9,0.9C25.9,26.4,25.5,26.8,25,26.8
	z"/>
</svg>
