<svg id="Layer_1" data-name="Layer 1" xmlns="http://www.w3.org/2000/svg" width="200" height="50" viewBox="0 0 200 50">
  <title>fordel4</title>
  <g>
    <path d="M113.2,16.7l1.5-6.8a1,1,0,0,0-.8-1.2l-6.8-1.5a1,1,0,0,0-1.2.8h0a1,1,0,0,0,.7,1.2h0l4.5,1L81.9,29.1,83,30.8l29.3-18.9-1,4.5a.87.87,0,0,0,.7,1.1,1.06,1.06,0,0,0,1.2-.8Z" fill="red"/>
    <path d="M121,11a.94.94,0,0,0-1,1V41h-2V21a.94.94,0,0,0-1-1h-6a.94.94,0,0,0-1,1V41h-2V26a.94.94,0,0,0-1-1h-6a.94.94,0,0,0-1,1V41H98V31a.94.94,0,0,0-1-1H91a.94.94,0,0,0-1,1V41H88V36a.94.94,0,0,0-1-1H81a.94.94,0,0,0-1,1v5H79a1,1,0,0,0,0,2h43V12A.94.94,0,0,0,121,11ZM82,41V37h4v4Zm10,0V32h4v9Zm10,0V27h4V41Zm10,0V22h4V41Z"/>
  </g>
</svg>
