<?xml version="1.0" encoding="utf-8"?>
<!-- Generator: Adobe Illustrator 21.1.0, SVG Export Plug-In . SVG Version: 6.00 Build 0)  -->
<svg version="1.1" id="Layer_1" xmlns="http://www.w3.org/2000/svg" xmlns:xlink="http://www.w3.org/1999/xlink" x="0px" y="0px"
	 viewBox="0 0 50 50" style="enable-background:new 0 0 50 50;" xml:space="preserve">
<style type="text/css">
	.st0{fill:#FFFFFF;}
</style>
<title>fordel5</title>
<path class="st0" d="M39.7,14.3l-10-8.3c-0.1-0.1-0.3-0.2-0.5-0.2h-15c-0.5,0-0.8,0.4-0.8,0.8v2.5h-2.5c-0.5,0-0.8,0.4-0.8,0.8v32.5
	c0,0.5,0.4,0.8,0.8,0.8h25c0.5,0,0.8-0.4,0.8-0.8v-2.5h2.5c0.5,0,0.8-0.4,0.8-0.8V14.9C40,14.7,39.9,14.4,39.7,14.3z M37.9,14.9
	h-8.7V7.7L37.9,14.9z M35,41.6H11.7V10.8h1.7v28.3c0,0.5,0.4,0.8,0.8,0.8H35V41.6z M15,38.3V7.4h12.5v8.3c0,0.5,0.4,0.8,0.8,0.8h10
	v21.7H15z"/>
</svg>
