<svg id="Layer_1" data-name="Layer 1" xmlns="http://www.w3.org/2000/svg" width="50" height="50" viewBox="0 0 50 50">
  <title>fordel4</title>
  <path d="M38.17,16.74l1.5-6.84a1,1,0,0,0-.76-1.19L32.06,7.21A1,1,0,0,0,30.87,8a1,1,0,0,0,.78,1.21l4.49,1L6.87,29.06l1.08,1.68L37.22,11.87l-1,4.46a1,1,0,0,0,.13.74,1,1,0,0,0,.62.43A1,1,0,0,0,38.17,16.74Z" fill="#fff"/>
  <path d="M46,11a1,1,0,0,0-1,1V41H43V21a1,1,0,0,0-1-1H36a1,1,0,0,0-1,1V41H33V26a1,1,0,0,0-1-1H26a1,1,0,0,0-1,1V41H23V31a1,1,0,0,0-1-1H16a1,1,0,0,0-1,1V41H13V36a1,1,0,0,0-1-1H6a1,1,0,0,0-1,1v5H4a1,1,0,0,0,0,2H47V12A1,1,0,0,0,46,11ZM7,41V37h4v4Zm10,0V32h4v9Zm10,0V27h4V41Zm10,0V22h4V41Z" fill="#fff"/>
</svg>
