<svg id="Layer_1" data-name="Layer 1" xmlns="http://www.w3.org/2000/svg" width="200" height="50" viewBox="0 0 200 50">
  <title>fordel5</title>
  <g>
    <path d="M114.7,15.3,104.7,7a.76.76,0,0,0-.5-.2h-15a.79.79,0,0,0-.8.8v2.5H85.9a.79.79,0,0,0-.8.8V43.4a.79.79,0,0,0,.8.8h25a.79.79,0,0,0,.8-.8V40.9h2.5a.79.79,0,0,0,.8-.8V15.9A.71.71,0,0,0,114.7,15.3Zm-1.8.6h-8.7V8.7ZM110,42.6H86.7V11.8h1.7V40.1a.79.79,0,0,0,.8.8H110ZM90,39.3V8.4h12.5v8.3a.79.79,0,0,0,.8.8h10V39.2L90,39.3Z"/>
    <rect x="92.3" y="22.7" width="17.5" height="1.7" fill="red"/>
    <rect x="92.3" y="28.2" width="11.7" height="1.7" fill="red"/>
  </g>
</svg>
