<svg id="Layer_1" data-name="Layer 1" xmlns="http://www.w3.org/2000/svg" width="200" height="50" viewBox="0 0 200 50">
  <title>fordel2</title>
  <g>
    <path d="M118.4,24.9a1.27,1.27,0,0,1-.9-.4,22.78,22.78,0,0,0-31.8-4.6,22.28,22.28,0,0,0-4.6,4.6,1.22,1.22,0,0,1-1.6.1,1.13,1.13,0,0,1-.2-1.6,24.92,24.92,0,0,1,34.9-5,23.7,23.7,0,0,1,5,5,1.13,1.13,0,0,1-.2,1.6.86.86,0,0,1-.6.3Z"/>
    <path d="M114.3,29a1.05,1.05,0,0,1-.9-.5A17,17,0,0,0,89.9,24a16.07,16.07,0,0,0-4.5,4.5,1.15,1.15,0,0,1-1.9-1.3h0a19.13,19.13,0,0,1,26.6-5.1,20.59,20.59,0,0,1,5.1,5.1,1.25,1.25,0,0,1-.3,1.6A.73.73,0,0,1,114.3,29Z"/>
    <path d="M110.7,32.6a1,1,0,0,1-.9-.6,12,12,0,0,0-16.3-4.4A12.37,12.37,0,0,0,89.1,32a1.12,1.12,0,0,1-2-1c0-.1.1-.1.1-.2a14.21,14.21,0,0,1,19.4-5.2,13,13,0,0,1,5.2,5.2,1.13,1.13,0,0,1-.4,1.5,1.33,1.33,0,0,1-.7.3Z"/>
    <g>
      <g>
        <line x1="95.4" y1="31.9" x2="103.3" y2="39.9" fill="none"/>
        <path d="M103.3,41.1a1.22,1.22,0,0,1-.9-.4l-7.9-7.9A1.21,1.21,0,0,1,96,30.9l.2.2,7.9,7.9a1.27,1.27,0,0,1,0,1.8,1.14,1.14,0,0,1-.8.3Z" fill="red"/>
      </g>
      <g>
        <line x1="103.3" y1="31.9" x2="95.4" y2="39.9" fill="none"/>
        <path d="M95.4,41.1a1.2,1.2,0,0,1-.8-2.1l7.9-7.9a1.27,1.27,0,0,1,1.9,1.7l-.1.1-8,7.9A1.61,1.61,0,0,1,95.4,41.1Z" fill="red"/>
      </g>
    </g>
  </g>
</svg>
