<?xml version="1.0" encoding="utf-8"?>
<!-- Generator: Adobe Illustrator 21.1.0, SVG Export Plug-In . SVG Version: 6.00 Build 0)  -->
<svg version="1.1" id="Layer_1" xmlns="http://www.w3.org/2000/svg" xmlns:xlink="http://www.w3.org/1999/xlink" x="0px" y="0px"
	 viewBox="0 0 50 50" style="enable-background:new 0 0 50 50;" xml:space="preserve">
<style type="text/css">
	.st0{fill:#FFFFFF;}
	.st1{fill:none;}
</style>
<title>fordel2</title>
<g>
	<path class="st0" d="M44.4,21.9c-0.4,0-0.7-0.2-0.9-0.4c-7.5-10-21.8-12.1-31.8-4.6c-1.7,1.3-3.3,2.8-4.6,4.6
		C6.7,21.9,6,22,5.5,21.6c-0.5-0.4-0.6-1.1-0.2-1.6c8.3-11,23.9-13.3,34.9-5c1.9,1.4,3.6,3.1,5,5c0.4,0.5,0.3,1.2-0.2,1.6
		C44.8,21.8,44.6,21.9,44.4,21.9L44.4,21.9z"/>
	<path class="st0" d="M40.3,26c-0.4,0-0.7-0.2-0.9-0.5c-5.3-7.7-15.8-9.7-23.5-4.5c-1.8,1.2-3.3,2.7-4.5,4.5c-0.3,0.5-1,0.7-1.6,0.3
		c-0.5-0.3-0.7-1-0.3-1.6l0,0c5.9-8.8,17.8-11,26.6-5.1c2,1.4,3.7,3.1,5.1,5.1c0.3,0.5,0.2,1.2-0.3,1.6C40.7,26,40.5,26,40.3,26z"/>
	<path class="st0" d="M36.7,29.6c-0.4,0-0.7-0.2-0.9-0.6c-3.3-5.7-10.6-7.7-16.3-4.4c-1.8,1.1-3.4,2.6-4.4,4.4
		c-0.3,0.6-0.9,0.8-1.5,0.5c-0.6-0.3-0.8-0.9-0.5-1.5c0-0.1,0.1-0.1,0.1-0.2c3.9-6.8,12.6-9.1,19.4-5.2c2.2,1.2,4,3,5.2,5.2
		c0.3,0.5,0.1,1.2-0.4,1.5C37.1,29.5,36.9,29.6,36.7,29.6L36.7,29.6z"/>
	<g>
		<g>
			<line class="st1" x1="21.4" y1="28.9" x2="29.3" y2="36.9"/>
			<path class="st0" d="M29.3,38.1c-0.3,0-0.6-0.1-0.9-0.4l-7.9-7.9c-0.5-0.4-0.6-1.2-0.2-1.7s1.2-0.6,1.7-0.2
				c0.1,0.1,0.1,0.1,0.2,0.2l7.9,7.9c0.5,0.5,0.5,1.3,0,1.8C29.9,38,29.6,38.1,29.3,38.1L29.3,38.1z"/>
		</g>
		<g>
			<line class="st1" x1="29.3" y1="28.9" x2="21.4" y2="36.9"/>
			<path class="st0" d="M21.4,38.1c-0.7,0-1.2-0.6-1.2-1.2c0-0.3,0.1-0.6,0.4-0.9l7.9-7.9c0.5-0.5,1.3-0.5,1.8-0.1
				c0.5,0.5,0.5,1.3,0.1,1.8c0,0,0,0-0.1,0.1l-8,7.9C22,38,21.7,38.1,21.4,38.1z"/>
		</g>
	</g>
</g>
</svg>
