<?xml version="1.0" encoding="utf-8"?>
<!-- Generator: Adobe Illustrator 21.1.0, SVG Export Plug-In . SVG Version: 6.00 Build 0)  -->
<svg version="1.1" id="Layer_1" xmlns="http://www.w3.org/2000/svg" xmlns:xlink="http://www.w3.org/1999/xlink" x="0px" y="0px"
	 viewBox="0 0 150 50" style="enable-background:new 0 0 150 50;" xml:space="preserve">
<style type="text/css">
	.st0{fill:#FFFFFF;}
	.st1{fill:#58595B;}
	.st2{fill:#59595C;}
</style>
<title>googlePlay</title>
<g>
	<path class="st0" d="M121.8,43.7H27.7c-2.8,0-5-2.2-5-5v-27c0-2.8,2.2-5,5-5h94.1c2.8,0,5,2.2,5,5c0,0,0,0,0,0v27
		C126.8,41.4,124.5,43.7,121.8,43.7z"/>
	<path class="st1" d="M121.8,43.7H27.7c-2.8,0-5-2.2-5-5v-27c0-2.8,2.2-5,5-5h94.1c2.8,0,5,2.2,5,5c0,0,0,0,0,0v27
		C126.8,41.4,124.5,43.7,121.8,43.7z M27.7,8c-2,0-3.7,1.7-3.7,3.7v27c0,2,1.7,3.7,3.7,3.7h94.1c2,0,3.7-1.7,3.7-3.7v-27
		c0-2-1.7-3.7-3.7-3.7l0,0H27.7z"/>
	<g>
		<g>
			<path class="st2" d="M56.6,18h-0.7c0-0.3-0.1-0.5-0.2-0.8h-1c-0.1,0.3-0.2,0.5-0.2,0.8h-0.6c0-0.1,0.2-0.5,0.5-1.4
				c0.2-0.5,0.4-0.9,0.5-1.4h0.8c0.1,0.5,0.3,0.9,0.5,1.4C56.4,17.1,56.5,17.5,56.6,18z M55.6,16.8c-0.1-0.4-0.3-0.8-0.4-1.2l0,0
				c0,0.1-0.1,0.5-0.4,1.2L55.6,16.8z"/>
			<path class="st2" d="M59.4,18h-0.5c-0.2-0.3-0.4-0.6-0.6-0.9c-0.3-0.4-0.5-0.8-0.7-1.2l0,0c0,0.3,0.1,0.6,0.1,0.9
				c0,0.4,0,0.8,0,1.3h-0.5c0-0.4,0-0.9,0-1.5c0-0.5,0-1,0-1.3h0.7c0.1,0.3,0.3,0.6,0.5,0.9c0.3,0.4,0.5,0.7,0.6,1.1l0,0
				c0-0.3,0-0.6-0.1-0.9c0-0.4,0-0.8,0-1.2h0.5c0,0.4,0,0.8,0,1.3C59.4,17.1,59.4,17.6,59.4,18z"/>
			<path class="st2" d="M62.5,16.5c0,0.4-0.1,0.8-0.4,1.1c-0.3,0.3-0.7,0.5-1.1,0.5h-0.9c0-0.4,0-0.9,0-1.5c0-0.5,0-1,0-1.3H61
				c0.4,0,0.8,0.1,1.1,0.4C62.4,15.9,62.5,16.2,62.5,16.5z M61.9,16.6c0-0.3-0.1-0.5-0.2-0.7c-0.2-0.2-0.5-0.3-0.7-0.3h-0.3
				c0,0.3,0,0.6,0,0.9s0,0.6,0,1c0.1,0,0.2,0,0.3,0c0.3,0,0.5-0.1,0.7-0.3C61.8,17.1,61.9,16.8,61.9,16.6z"/>
			<path class="st2" d="M65.4,18h-0.6c-0.1-0.3-0.2-0.6-0.4-0.9c-0.1-0.1-0.3-0.2-0.4-0.2h-0.2c0,0.4,0,0.7,0,1.1h-0.6
				c0-0.4,0-0.9,0-1.5c0-0.5,0-1,0-1.3h1c0.7,0,1,0.2,1,0.7c0,0.4-0.2,0.7-0.6,0.7l0,0c0.2,0.1,0.3,0.2,0.4,0.3
				C65.1,17.3,65.3,17.7,65.4,18z M64.6,16c0-0.3-0.2-0.4-0.6-0.4c-0.1,0-0.2,0-0.4,0c0,0.2,0,0.5,0,0.9h0.2
				C64.4,16.5,64.6,16.4,64.6,16z"/>
			<path class="st2" d="M68.5,16.6c0,0.4-0.1,0.8-0.4,1.1c-0.3,0.3-0.6,0.4-1,0.4c-0.4,0-0.7-0.1-1-0.4c-0.3-0.3-0.4-0.6-0.4-1
				c0-0.4,0.1-0.8,0.4-1.1c0.3-0.3,0.6-0.4,1-0.4c0.4,0,0.7,0.2,0.9,0.4C68.3,15.8,68.5,16.2,68.5,16.6z M67.9,16.6
				c0-0.3-0.1-0.5-0.2-0.7c-0.1-0.2-0.3-0.3-0.6-0.3c-0.2,0-0.4,0.1-0.5,0.3c-0.2,0.2-0.2,0.5-0.2,0.7c0,0.3,0.1,0.5,0.2,0.7
				c0.1,0.2,0.3,0.3,0.6,0.3c0.2,0,0.4-0.1,0.5-0.3C67.8,17.1,67.9,16.9,67.9,16.6z"/>
			<path class="st2" d="M69.7,18h-0.6c0-0.4,0-0.9,0-1.5c0-0.5,0-1,0-1.3h0.6c0,0.4,0,0.8,0,1.3C69.7,17.1,69.7,17.6,69.7,18z"/>
			<path class="st2" d="M72.8,16.5c0,0.4-0.2,0.8-0.4,1.1c-0.3,0.3-0.7,0.5-1.1,0.5h-0.9c0-0.4,0-0.9,0-1.5c0-0.5,0-1,0-1.3h0.9
				c0.4,0,0.8,0.1,1.1,0.4C72.6,15.9,72.8,16.2,72.8,16.5z M72.2,16.6c0-0.3-0.1-0.5-0.2-0.7c-0.2-0.2-0.5-0.3-0.7-0.3H71
				c0,0.3,0,0.6,0,0.9s0,0.6,0,1c0.1,0,0.2,0,0.3,0c0.3,0,0.5-0.1,0.7-0.3C72.1,17.1,72.2,16.8,72.2,16.6L72.2,16.6z"/>
			<path class="st2" d="M77,18h-0.7c0-0.3-0.1-0.5-0.2-0.8h-1c-0.1,0.3-0.2,0.5-0.2,0.8h-0.6c0-0.1,0.2-0.5,0.5-1.4
				c0.2-0.5,0.4-0.9,0.5-1.4H76c0.1,0.5,0.3,0.9,0.5,1.4C76.7,17.1,76.8,17.5,77,18z M76,16.8c-0.1-0.4-0.3-0.8-0.4-1.2l0,0
				c0,0.1-0.1,0.5-0.4,1.2H76z"/>
			<path class="st2" d="M79.5,15.9c0,0.3-0.1,0.6-0.4,0.8c-0.3,0.2-0.6,0.3-0.9,0.2H78c0,0.3,0,0.6,0,1.1h-0.6c0-0.4,0-0.9,0-1.5
				s0-1,0-1.3h1.1c0.2,0,0.5,0.1,0.7,0.2C79.3,15.5,79.5,15.7,79.5,15.9z M78.9,16.1c0-0.3-0.2-0.5-0.6-0.5c-0.1,0-0.2,0-0.3,0
				c0,0.3,0,0.6,0,0.9h0.1C78.6,16.5,78.9,16.4,78.9,16.1L78.9,16.1z"/>
			<path class="st2" d="M82,15.9c0,0.3-0.1,0.6-0.4,0.8C81.4,16.9,81,17,80.7,17h-0.1c0,0.3,0,0.6,0,1.1H80c0-0.4,0-0.9,0-1.5
				s0-1,0-1.3H81c0.2,0,0.5,0.1,0.7,0.2C81.9,15.5,82,15.7,82,15.9z M81.5,16.1c0-0.3-0.2-0.5-0.6-0.5c-0.1,0-0.2,0-0.3,0
				c0,0.3,0,0.6,0,0.9h0.1C81.2,16.5,81.5,16.4,81.5,16.1L81.5,16.1z"/>
			<path class="st2" d="M86.2,16.6c0,0.4-0.1,0.8-0.4,1.1c-0.3,0.3-0.6,0.4-1,0.4c-0.4,0-0.7-0.1-1-0.4c-0.3-0.3-0.4-0.6-0.4-1
				c0-0.4,0.1-0.8,0.4-1.1c0.3-0.3,0.6-0.4,1-0.4c0.4,0,0.7,0.1,1,0.4C86.1,15.8,86.3,16.2,86.2,16.6z M85.7,16.6
				c0-0.3-0.1-0.5-0.2-0.7c-0.1-0.2-0.3-0.3-0.6-0.3c-0.2,0-0.4,0.1-0.5,0.3c-0.2,0.2-0.2,0.5-0.2,0.7c0,0.3,0.1,0.5,0.2,0.7
				c0.1,0.2,0.3,0.3,0.6,0.3c0.2,0,0.4-0.1,0.5-0.3C85.6,17.1,85.7,16.9,85.7,16.6z"/>
			<path class="st2" d="M89.2,18h-0.5c-0.2-0.3-0.4-0.6-0.6-0.9c-0.3-0.4-0.5-0.8-0.7-1.2l0,0c0,0.3,0.1,0.6,0.1,0.9
				c0,0.4,0,0.8,0,1.3h-0.5c0-0.4,0-0.9,0-1.5c0-0.5,0-1,0-1.3h0.6c0.1,0.3,0.3,0.6,0.5,0.9c0.3,0.4,0.5,0.7,0.7,1.1l0,0
				c0-0.3,0-0.6-0.1-0.9c0-0.4,0-0.8,0-1.2h0.5c0,0.4,0,0.8,0,1.3C89.2,17.1,89.2,17.6,89.2,18z"/>
		</g>
		<g>
			<path class="st2" d="M63.8,27c0.1,1.2-0.4,2.4-1.2,3.3c-1,1-2.3,1.5-3.7,1.5c-2.9,0-5.2-2.3-5.2-5.2s2.3-5.2,5.2-5.2
				c0.7,0,1.4,0.1,2,0.4c0.6,0.2,1.1,0.6,1.6,1.1l-0.9,0.9c-0.7-0.8-1.7-1.2-2.7-1.2c-2.1,0-3.9,1.7-3.9,3.8c0,0,0,0.1,0,0.1
				c0,2.2,1.7,3.9,3.9,4c1,0,2-0.4,2.8-1.1c0.5-0.5,0.8-1.3,0.9-2h-3.6v-1.2h4.8C63.8,26.5,63.8,26.7,63.8,27z"/>
			<path class="st2" d="M65.3,25.6c1.4-1.4,3.6-1.4,5,0c1.3,1.5,1.3,3.7,0,5.2c-1.4,1.4-3.6,1.4-5,0C64,29.2,64,27,65.3,25.6z
				 M66.3,29.9c0.8,0.9,2.2,0.9,3,0.1c0,0,0.1-0.1,0.1-0.1c0.9-1,0.9-2.5,0-3.6c-0.8-0.9-2.2-0.9-3-0.1c0,0-0.1,0.1-0.1,0.1
				C65.4,27.4,65.4,28.9,66.3,29.9z"/>
			<path class="st2" d="M72.7,25.6c1.4-1.4,3.6-1.4,5,0c1.3,1.5,1.3,3.7,0,5.2c-1.4,1.4-3.6,1.4-5,0C71.4,29.2,71.4,27,72.7,25.6z
				 M73.7,29.9c0.8,0.9,2.2,0.9,3,0.1c0,0,0.1-0.1,0.1-0.1c0.9-1,0.9-2.5,0-3.6c-0.8-0.9-2.2-0.9-3-0.1c0,0-0.1,0.1-0.1,0.1
				C72.8,27.4,72.8,28.9,73.7,29.9z"/>
			<path class="st2" d="M82.5,34.8c-0.7,0-1.4-0.2-2-0.6c-0.5-0.4-0.9-0.9-1.1-1.4l1.2-0.5c0.1,0.4,0.4,0.7,0.7,0.9
				c0.3,0.3,0.8,0.4,1.2,0.4c0.6,0,1.2-0.2,1.7-0.6c0.4-0.5,0.6-1.1,0.6-1.7v-0.6h-0.1c-0.2,0.4-0.6,0.7-0.9,0.9
				c-0.4,0.2-0.9,0.3-1.4,0.3c-0.9,0-1.7-0.4-2.3-1.1c-1.3-1.5-1.3-3.7,0-5.2c0.6-0.7,1.4-1,2.3-1c0.5,0,1,0.1,1.4,0.3
				c0.4,0.2,0.7,0.5,0.9,0.9h0.1v-0.9H86v6.5c0.1,1-0.3,2-1,2.7C84.3,34.5,83.4,34.8,82.5,34.8z M82.6,30.6c0.6,0,1.1-0.2,1.5-0.7
				c0.4-0.5,0.7-1.1,0.6-1.8c0-0.7-0.2-1.3-0.6-1.8c-0.8-0.8-2.1-0.9-3-0.1c0,0-0.1,0.1-0.1,0.1c-0.9,1-0.9,2.5,0,3.6
				C81.5,30.4,82.1,30.6,82.6,30.6L82.6,30.6z"/>
			<path class="st2" d="M88.5,31.6h-1.3v-10h1.3L88.5,31.6z"/>
			<path class="st2" d="M92.7,31.8c-0.9,0-1.9-0.3-2.5-1c-0.6-0.7-1-1.6-1-2.6c0-0.9,0.3-1.9,0.9-2.6c0.6-0.7,1.5-1.1,2.4-1.1
				c0.9,0,1.8,0.3,2.4,1c0.6,0.7,1,1.7,0.9,2.6v0.2h-5.4c0,0.6,0.3,1.2,0.7,1.6c0.4,0.4,0.9,0.6,1.5,0.6c0.8,0.1,1.6-0.4,1.9-1.2
				l1.1,0.5c-0.2,0.5-0.6,1-1.1,1.3C94.1,31.6,93.4,31.8,92.7,31.8z M94.6,27.3c0-0.4-0.2-0.8-0.5-1.1c-0.4-0.4-0.9-0.6-1.5-0.5
				c-0.5,0-0.9,0.2-1.2,0.4c-0.4,0.3-0.6,0.7-0.7,1.2L94.6,27.3z"/>
			<path class="st2" d="M101,31.6h-1.3v-10h3.4c0.8,0,1.6,0.3,2.2,0.9c1.2,1.1,1.2,2.9,0.2,4.1c-0.1,0.1-0.1,0.1-0.2,0.2
				c-0.6,0.6-1.4,0.9-2.2,0.9H101L101,31.6z M101,26.3h2.1c0.5,0,1-0.2,1.3-0.5c0.6-0.7,0.6-1.7,0-2.4c-0.3-0.4-0.8-0.6-1.3-0.5H101
				V26.3z"/>
			<path class="st2" d="M108.3,31.6H107v-10h1.3V31.6z"/>
			<path class="st2" d="M111.6,31.8c-0.7,0-1.3-0.2-1.8-0.6c-0.5-0.4-0.8-1-0.7-1.7c0-0.7,0.3-1.3,0.9-1.7c0.6-0.4,1.4-0.7,2.1-0.6
				c0.6,0,1.3,0.1,1.8,0.4v-0.2c0-0.5-0.2-0.9-0.5-1.2c-0.3-0.3-0.8-0.5-1.3-0.5c-0.4,0-0.7,0.1-1,0.3c-0.3,0.2-0.5,0.4-0.6,0.7
				l-1.2-0.5c0.2-0.5,0.5-0.9,0.9-1.2c0.5-0.4,1.2-0.6,1.8-0.5c0.8,0,1.6,0.2,2.2,0.8c0.6,0.6,0.9,1.3,0.9,2.2v4.1h-1.2v-0.9h-0.1
				C113.3,31.4,112.5,31.8,111.6,31.8z M111.8,30.6c0.5,0,1.1-0.2,1.4-0.6c0.4-0.3,0.6-0.9,0.6-1.4c-0.5-0.3-1-0.5-1.6-0.4
				c-0.5,0-1,0.1-1.4,0.4c-0.3,0.2-0.5,0.6-0.5,0.9c0,0.3,0.2,0.6,0.4,0.8C111.1,30.5,111.5,30.6,111.8,30.6L111.8,30.6z"/>
			<path class="st2" d="M117.9,34.6h-1.3l1.6-3.4l-2.8-6.4h1.4l2,4.9l0,0l2-4.9h1.4L117.9,34.6z"/>
		</g>
		<g>
			<path class="st1" d="M29.9,26.4c0-3.2,0-6.4,0-9.5c0-0.4,0.1-0.8,0.4-1c0.1-0.1,0.2-0.1,0.3,0l6.4,6.5l4.2,4.2
				c0.1,0.1,0.1,0.2,0,0.4c-3.4,3.4-6.8,6.8-10.2,10.2c-0.1,0.2-0.3,0.2-0.5,0.1c0,0,0,0-0.1-0.1c-0.3-0.3-0.5-0.7-0.5-1.1
				c0-1.9,0-3.8,0-5.7C29.9,29.1,29.9,27.7,29.9,26.4L29.9,26.4z"/>
			<path class="st1" d="M31.1,15.5c0.2,0,0.4,0.1,0.6,0.2L44.8,23c0.2,0.1,0.2,0.2,0,0.3c-1,1-1.9,1.9-2.9,2.9
				c-0.1,0.1-0.2,0.2-0.3,0L31.2,15.6L31.1,15.5z"/>
			<path class="st1" d="M32.1,37.1c3.2-3.2,6.3-6.4,9.5-9.6c0.2-0.2,0.3-0.2,0.5,0c0.8,0.8,1.6,1.7,2.4,2.5c0.1,0.1,0.2,0.2,0,0.3
				l-12.2,6.7C32.2,37,32.1,37,32.1,37.1z"/>
			<path class="st1" d="M50.1,26.5c0,0.3-0.2,0.6-0.4,0.8c-0.2,0.1-0.4,0.3-0.6,0.4l-3.7,2c-0.1,0.1-0.3,0.1-0.4,0c0,0,0,0,0,0
				c-0.9-0.9-1.7-1.8-2.6-2.7c-0.1-0.1-0.1-0.2,0-0.3c1-1,2.1-2,3.1-3.1c0.1-0.1,0.2-0.1,0.3-0.1c0,0,0,0,0,0l3.6,2
				C49.8,25.7,50.1,26.1,50.1,26.5z"/>
		</g>
	</g>
</g>
</svg>
