<?xml version="1.0" encoding="utf-8"?>
<!-- Generator: Adobe Illustrator 21.1.0, SVG Export Plug-In . SVG Version: 6.00 Build 0)  -->
<svg version="1.1" id="Layer_1" xmlns="http://www.w3.org/2000/svg" xmlns:xlink="http://www.w3.org/1999/xlink" x="0px" y="0px"
	 viewBox="0 0 300 300" style="enable-background:new 0 0 300 300;" xml:space="preserve">
<style type="text/css">
	.st0{fill:#969696;}
</style>
<g>
	<path class="st0" d="M149.9,240.5c-17.7,0-35.4,0.1-53,0c-15.8-0.1-28.6-9.8-32.7-25.1c-0.7-2.7-1.1-5.6-1.1-8.4
		c-0.1-30.5,0-60.9,0-91.4c0-5.1-0.1-10.2,0-15.2C63.2,84.3,73.9,71,89.6,67.5c2.6-0.6,5.3-0.8,8-0.8c35.2,0,70.4-0.1,105.6,0
		c18.9,0,33.7,14.5,33.8,33.4c0.2,20.1,0.1,40.3,0.1,60.4c0,15.5,0.1,30.9,0,46.4c-0.1,16.3-10.8,29.5-26.6,32.9
		c-3.1,0.7-6.3,0.7-9.5,0.7C183.8,240.5,166.9,240.5,149.9,240.5L149.9,240.5z M105.7,135.8c-0.7,0-1.2-0.1-1.7-0.1
		c-7.4,0-14.7,0-22.1,0c-1.6,0-2,0.5-2,2.1c0,22.2,0,44.5,0,66.7c0,2,0,4.1,0.5,6.1c1.6,7.6,8.3,12.9,16.2,12.9
		c12.9,0.1,25.8,0,38.7,0c22.5,0,45.1,0,67.6,0c1.5,0,3.1-0.2,4.6-0.6c8-2.1,12.6-8.7,12.5-17.6c-0.1-19.4,0-38.8,0-58.2
		c0-3.8,0-7.5,0-11.3c-8.7,0-17.2,0-25.7,0c8.6,22.7-0.7,44.7-16.1,55.9c-16.4,12-37.8,12.4-54.6,1.4
		C109,183.6,96.1,161.3,105.7,135.8z M180.6,153.5c0-16.6-13.8-30.5-30.3-30.5c-17,0-30.8,13.7-30.8,30.5c0,17,13.7,30.7,30.7,30.7
		C166.8,184.1,180.5,170.4,180.6,153.5z M187.4,115.9c9.9,0,19.6,0,29.3,0c0-0.6,0.1-1.1,0.1-1.5c0-8.6,0-17.2,0-25.8
		c0-1.6-0.4-2-2-2c-8.6,0.1-17.2,0.1-25.8,0.1c-1.4,0-1.7,0.5-1.7,1.8c0.1,6,0.1,12.1,0.1,18.1C187.4,109.7,187.4,112.8,187.4,115.9
		z"/>
</g>
</svg>
