<?xml version="1.0" encoding="utf-8"?>
<!-- Generator: Adobe Illustrator 21.1.0, SVG Export Plug-In . SVG Version: 6.00 Build 0)  -->
<svg version="1.1" id="Layer_1" xmlns="http://www.w3.org/2000/svg" xmlns:xlink="http://www.w3.org/1999/xlink" x="0px" y="0px"
	 viewBox="0 0 300 300" style="enable-background:new 0 0 300 300;" xml:space="preserve">
<style type="text/css">
	.st0{fill:#969696;}
</style>
<path class="st0" d="M149.9,240.6c-0.6,0-1.2,0-1.8,0c-18.4,0-36.8,0-55.3,0c-16.4,0-29.8-13.4-29.8-29.8c0-38.1,0-76.2,0-114.3
	C63,80,76.4,66.6,92.9,66.6c38.1,0,76.2,0,114.3,0c16.4,0,29.8,13.5,29.8,29.9c0,38.1,0,76.2,0,114.3c0,16.4-13.5,29.8-29.9,29.8
	c-9.4,0-18.7,0-28.1,0c-0.5,0-1.1,0-1.7,0c0-21.9,0-43.7,0-65.7c0.7,0,1.4,0,2,0c8.3,0,16.7,0,25,0c1.4,0,1.8-0.4,1.8-1.8
	c-0.1-8.5,0-17,0-25.5c0-0.5,0-1,0-1.6c-9.6,0-19.1,0-28.8,0c-0.1-0.6-0.1-1.1-0.1-1.6c0-3.2-0.1-6.4,0-9.6c0.1-1.6,0.4-3.3,1-4.7
	c1-2.3,2.8-3.5,5.4-3.5c6.9,0.1,13.8,0,20.8,0c1.4,0,1.8-0.4,1.7-1.7c-0.1-8.6,0-17.1,0-25.7c0-0.9,0-1.7-1.3-1.7
	c-7.6,0.1-15.2-0.1-22.7,0.1c-10.5,0.3-18.5,5.5-24.5,13.8c-4.8,6.7-7.3,14.2-7.4,22.4c-0.1,3.9,0,7.8,0,12c-7.2,0-14.2,0-21.3,0
	c0,0.8,0,1.4,0,2c0,8.3,0.1,16.7,0,25c0,1.7,0.5,2.1,2.1,2c5.7-0.1,11.4,0,17.2,0c0.6,0,1.2,0,1.9,0
	C149.9,196.8,149.9,218.6,149.9,240.6z"/>
</svg>
