<?xml version="1.0" encoding="utf-8"?>
<!-- Generator: Adobe Illustrator 21.1.0, SVG Export Plug-In . SVG Version: 6.00 Build 0)  -->
<svg version="1.1" id="Layer_1" xmlns="http://www.w3.org/2000/svg" xmlns:xlink="http://www.w3.org/1999/xlink" x="0px" y="0px"
	 viewBox="0 0 116 20" style="enable-background:new 0 0 116 20;" xml:space="preserve">
<style type="text/css">
	.st0{fill:#00C800;}
	.st1{fill:#FFFFFF;}
</style>
<title>list</title>
<circle class="st0" cx="13.3" cy="10.4" r="2.7"/>
<path d="M13.3,8c1.3,0,2.4,1.1,2.4,2.4s-1.1,2.4-2.4,2.4s-2.4-1.1-2.4-2.4C10.9,9.1,12,8,13.3,8 M13.3,7.5c-1.6,0-2.9,1.3-2.9,2.9
	s1.3,2.9,2.9,2.9s2.9-1.3,2.9-2.9l0,0C16.2,8.8,14.9,7.5,13.3,7.5z"/>
<g>
	<circle class="st1" cx="30.4" cy="10.4" r="2.7"/>
	<path d="M30.4,8c1.3,0,2.4,1.1,2.4,2.4c0,1.3-1.1,2.4-2.4,2.4c-1.3,0-2.4-1.1-2.4-2.4C28,9.1,29.1,8,30.4,8 M30.4,7.5
		c-1.6,0-2.9,1.3-2.9,2.9s1.3,2.9,2.9,2.9c1.6,0,2.9-1.3,2.9-2.9S32.1,7.5,30.4,7.5L30.4,7.5z"/>
</g>
<g>
	<circle class="st1" cx="48" cy="10.4" r="2.7"/>
	<path d="M48,8c1.3,0,2.4,1.1,2.4,2.4s-1.1,2.4-2.4,2.4c-1.3,0-2.4-1.1-2.4-2.4v0C45.6,9.1,46.7,8,48,8 M48,7.5
		c-1.6,0-2.9,1.4-2.9,3c0,1.6,1.4,2.9,3,2.9c1.6,0,2.9-1.3,2.9-2.9C51,8.8,49.7,7.5,48,7.5C48,7.5,48,7.5,48,7.5z"/>
</g>
<g>
	<circle class="st1" cx="64.8" cy="10.4" r="2.7"/>
	<path d="M64.8,8c1.3,0,2.4,1.1,2.4,2.4s-1.1,2.4-2.4,2.4c-1.3,0-2.4-1.1-2.4-2.4v0C62.3,9.1,63.4,8,64.8,8 M64.8,7.5
		c-1.6,0-2.9,1.3-2.9,2.9s1.3,2.9,2.9,2.9s2.9-1.3,2.9-2.9v0C67.7,8.8,66.4,7.5,64.8,7.5z"/>
</g>
<g>
	<circle class="st1" cx="82.7" cy="10.4" r="2.7"/>
	<path d="M82.7,8c1.3,0,2.4,1.1,2.4,2.4c0,1.3-1.1,2.4-2.4,2.4c-1.3,0-2.4-1.1-2.4-2.4C80.2,9.1,81.3,8,82.7,8 M82.7,7.5
		c-1.6,0-2.9,1.3-2.9,2.9c0,1.6,1.3,2.9,2.9,2.9c1.6,0,2.9-1.3,2.9-2.9S84.3,7.5,82.7,7.5L82.7,7.5z"/>
</g>
<g>
	<circle class="st1" cx="99.1" cy="10.4" r="2.7"/>
	<path d="M99.1,8c1.3,0,2.4,1.1,2.4,2.4c0,1.3-1.1,2.4-2.4,2.4c-1.3,0-2.4-1.1-2.4-2.4C96.7,9.1,97.8,8,99.1,8 M99.1,7.5
		c-1.6,0-2.9,1.3-2.9,2.9c0,1.6,1.3,2.9,2.9,2.9c1.6,0,2.9-1.3,2.9-2.9S100.8,7.5,99.1,7.5L99.1,7.5z"/>
</g>
</svg>
