<?xml version="1.0" encoding="utf-8"?>
<!-- Generator: Adobe Illustrator 21.1.0, SVG Export Plug-In . SVG Version: 6.00 Build 0)  -->
<svg version="1.1" id="Layer_1" xmlns="http://www.w3.org/2000/svg" xmlns:xlink="http://www.w3.org/1999/xlink" x="0px" y="0px"
	 viewBox="0 0 309.7 100" style="enable-background:new 0 0 309.7 100;" xml:space="preserve">
<style type="text/css">
	.st0{fill:#ED1C24;}
	.st1{fill:#FFFFFF;}
</style>
<path d="M21,54.2h-6v3.5c0,0.5,0.3,1.2,1.2,1.2h4.6v5.3H3.3v-5.3h2.5c0.9,0,1.2-0.5,1.2-1.2V43c0-0.5-0.3-1.2-1.2-1.2H3.3v-5.2h18.2
	c6,0,10.2,3.6,10.2,8.8C31.6,51,27.8,54.2,21,54.2z M19.9,42h-4.8v7h4.6c2.2,0,3.8-1.3,3.8-3.4C23.5,43.7,21.9,42.1,19.9,42L19.9,42
	z"/>
<path d="M46.5,64.7c-10.2,0-14-5.5-14-14.7c0-7.1,4.1-13.9,13.9-13.9c9.3,0,14.4,4.7,14.4,14S55.5,64.7,46.5,64.7z M46.5,41.2
	c-4.6,0-5.4,3.5-5.4,9.5c0,4.7,0.7,8.5,5.4,8.5c4.2,0,5.4-3.4,5.4-8.4C52,44.5,51.1,41.2,46.5,41.2z"/>
<path d="M61.4,63.9v-5.3h2.5c0.9,0,1.2-0.5,1.2-1.2V43c0-0.5-0.3-1.2-1.2-1.2h-2.5v-5.2h16.3v5.3h-3.3c-0.9,0-1.2,0.5-1.2,1.2v13.8
	c0,1.2,0.5,1.8,2.7,1.8c3.5,0,5.5-0.7,5.7-4.6l0.1-2.1h5.5v12L61.4,63.9L61.4,63.9z"/>
<path d="M89.1,63.9v-5.3H92c0.9,0,1.2-0.5,1.2-1.2V43c0-0.5-0.3-1.2-1.2-1.2h-2.9v-5.2h16.3v5.3h-2.9c-0.9,0-1.2,0.5-1.2,1.2v14.6
	c0,0.5,0.3,1.2,1.2,1.2h2.9V64L89.1,63.9z"/>
<path d="M129.8,48.9v-5c0.1-1-0.7-1.8-1.6-1.8c-0.1,0-0.1,0-0.3,0h-2.5v15.5c0,0.5,0.3,1.2,1.2,1.2h3.3V64h-17.1v-5.3h3.3
	c0.9,0,1.2-0.5,1.2-1.2V42h-2.5c-1-0.1-1.7,0.7-1.8,1.6c0,0.1,0,0.3,0,0.3v5h-5.7V36.8h28.3v12.1H129.8z"/>
<path d="M137.3,63.9v-5.3h2.9c0.9,0,1.2-0.5,1.2-1.2V43c0-0.5-0.3-1.2-1.2-1.2h-2.9v-5.2h16.3v5.3h-2.9c-0.9,0-1.2,0.5-1.2,1.2v14.6
	c0,0.5,0.3,1.2,1.2,1.2h2.9V64L137.3,63.9z"/>
<path d="M172.6,63.9v-5.3h1.3c0.9,0,1-0.8,0.7-1.3l-3.5-5.2l-3.8,3.1v2.2c0,0.5,0.3,1.2,1.2,1.2h1.7v5.3h-14.6v-5.3h2.5
	c0.9,0,1.2-0.5,1.2-1.2V43c0-0.5-0.3-1.2-1.2-1.2h-2.5v-5.2H170v5.3h-1.7c-0.9,0-1.2,0.5-1.2,1.2v6.7l7.9-6.4
	c0.4-0.3,0.4-0.5,0.3-0.8c-0.1-0.3-0.4-0.4-0.7-0.3h-2.1v-5.5h14.9V42h-2.3c-1.2,0-2.2,0.4-3.1,1.2l-4.6,3.8l7.2,10.6
	c0.5,0.7,1.3,1.2,2.1,1.2h1.3V64L172.6,63.9L172.6,63.9z"/>
<path d="M190,63.9v-5.3h2.5c0.9,0,1.2-0.5,1.2-1.2V43c0-0.5-0.3-1.2-1.2-1.2H190v-5.2h27.7v10.5h-5.3l-0.3-3.4
	c-0.1-1-0.4-1.9-2.1-1.9h-8.2v6h2.2c0.7,0,1-0.5,1.2-1.2l0.3-1.8h3.8v9.7h-3.9l-0.3-1.6c-0.1-0.5-0.4-1-1-1H202v4.8
	c0,1.2,0.5,1.6,1.6,1.6h5.7c2.2,0,3.1-1.2,3.4-2.9L213,52h5.5v11.6h-28.1v0.1C190.4,63.9,190,63.9,190,63.9z"/>
<path d="M250.3,42c-0.9,0-1.2,0.5-1.2,1.2V64h-6.7L230,48.3v9.3c0,0.5,0.3,1.2,1.2,1.2h2.5V64H220v-5.3h2.5c0.9,0,1.2-0.5,1.2-1.2
	V43c0-0.5-0.3-1.2-1.2-1.2H220v-5.2h11.4l11.4,14.5V43c0-0.5-0.3-1.2-1.2-1.2h-2.5v-5.2h13.6v5.3L250.3,42L250.3,42z"/>
<rect x="257.7" y="26" class="st0" width="48.6" height="48.6"/>
<g>
	<path class="st1" d="M272.3,55.4v-3.6h1.7c0.6,0,0.8-0.4,0.8-0.8V41c0-0.4-0.2-0.8-0.8-0.8h-1.7v-3.6h19.1v7.3h-3.6l-0.2-2.3
		c-0.1-0.7-0.3-1.3-1.4-1.3h-5.7v4.1h1.5c0.5,0,0.7-0.4,0.8-0.8l0.2-1.2h2.6V49h-2.7l-0.2-1.1c-0.1-0.4-0.2-0.7-0.7-0.7h-1.5v3.3
		c0,0.8,0.4,1.1,1.1,1.1h3.9c1.5,0,2.2-0.8,2.3-2l0.2-2.3h3.8v8h-19.4L272.3,55.4C272.6,55.4,272.3,55.4,272.3,55.4z"/>
	<g>
		<path class="st1" d="M278.4,63.9H277l-0.6-1.5h-2.6l-0.5,1.5h-1.4l2.6-6.6h1.4L278.4,63.9z M276,61.3l-0.9-2.4l-0.9,2.4H276z"/>
		<path class="st1" d="M280.1,63.9l-2.4-6.6h1.4l1.7,4.9l1.6-4.9h1.4l-2.4,6.6H280.1z"/>
		<path class="st1" d="M284.5,63.9v-6.6h1.3v6.6H284.5z"/>
		<path class="st1" d="M286.8,61.8l1.3-0.1c0.1,0.4,0.2,0.8,0.5,1c0.2,0.2,0.6,0.3,1,0.3s0.8-0.1,1-0.3s0.3-0.4,0.3-0.6
			c0-0.2,0-0.3-0.1-0.4c-0.1-0.1-0.3-0.2-0.5-0.3s-0.5-0.1-1.1-0.3c-0.7-0.2-1.2-0.4-1.5-0.7c-0.4-0.4-0.6-0.8-0.6-1.3
			c0-0.3,0.1-0.6,0.3-0.9c0.2-0.3,0.5-0.5,0.8-0.7s0.8-0.2,1.3-0.2c0.8,0,1.4,0.2,1.9,0.5c0.4,0.4,0.6,0.8,0.7,1.4l-1.3,0.1
			c-0.1-0.3-0.2-0.6-0.4-0.7c-0.2-0.1-0.5-0.2-0.8-0.2c-0.4,0-0.7,0.1-0.9,0.2c-0.1,0.1-0.2,0.2-0.2,0.4s0.1,0.3,0.2,0.4
			c0.2,0.1,0.6,0.3,1.2,0.4s1.1,0.3,1.4,0.5s0.6,0.4,0.7,0.7c0.2,0.3,0.3,0.6,0.3,1s-0.1,0.7-0.3,1.1c-0.2,0.3-0.5,0.6-0.9,0.7
			c-0.4,0.2-0.9,0.2-1.4,0.2c-0.8,0-1.5-0.2-1.9-0.6C287.2,63.1,286.9,62.5,286.8,61.8z"/>
	</g>
</g>
</svg>
