<?xml version="1.0" encoding="utf-8"?>
<!-- Generator: Adobe Illustrator 21.1.0, SVG Export Plug-In . SVG Version: 6.00 Build 0)  -->
<svg version="1.1" id="Layer_1" xmlns="http://www.w3.org/2000/svg" xmlns:xlink="http://www.w3.org/1999/xlink" x="0px" y="0px"
	 viewBox="0 0 309.7 58" style="enable-background:new 0 0 309.7 58;" xml:space="preserve">
<style type="text/css">
	.st0{fill:#ED1C24;}
	.st1{fill:#FFFFFF;}
</style>
<path d="M21,33.5h-6V37c0,0.5,0.3,1.2,1.2,1.2h4.6v5.3H3.3v-5.3h2.5C6.7,38.2,7,37.7,7,37V22.3c0-0.5-0.3-1.2-1.2-1.2H3.3v-5.2h18.2
	c6,0,10.2,3.6,10.2,8.8C31.6,30.3,27.8,33.5,21,33.5z M19.9,21.3h-4.8v7h4.6c2.2,0,3.8-1.3,3.8-3.4C23.5,23,21.9,21.4,19.9,21.3
	L19.9,21.3z"/>
<path d="M46.5,44c-10.2,0-14-5.5-14-14.7c0-7.1,4.1-13.9,13.9-13.9c9.3,0,14.4,4.7,14.4,14S55.5,44,46.5,44z M46.5,20.5
	c-4.6,0-5.4,3.5-5.4,9.5c0,4.7,0.7,8.5,5.4,8.5c4.2,0,5.4-3.4,5.4-8.4C52,23.8,51.1,20.5,46.5,20.5z"/>
<path d="M61.4,43.2v-5.3h2.5c0.9,0,1.2-0.5,1.2-1.2V22.3c0-0.5-0.3-1.2-1.2-1.2h-2.5v-5.2h16.3v5.3h-3.3c-0.9,0-1.2,0.5-1.2,1.2
	v13.8c0,1.2,0.5,1.8,2.7,1.8c3.5,0,5.5-0.7,5.7-4.6l0.1-2.1h5.5v12L61.4,43.2L61.4,43.2z"/>
<path d="M89.1,43.2v-5.3H92c0.9,0,1.2-0.5,1.2-1.2V22.3c0-0.5-0.3-1.2-1.2-1.2h-2.9v-5.2h16.3v5.3h-2.9c-0.9,0-1.2,0.5-1.2,1.2V37
	c0,0.5,0.3,1.2,1.2,1.2h2.9v5.1L89.1,43.2z"/>
<path d="M129.8,28.2v-5c0.1-1-0.7-1.8-1.6-1.8c-0.1,0-0.1,0-0.3,0h-2.5v15.5c0,0.5,0.3,1.2,1.2,1.2h3.3v5.2h-17.1V38h3.3
	c0.9,0,1.2-0.5,1.2-1.2V21.3h-2.5c-1-0.1-1.7,0.7-1.8,1.6c0,0.1,0,0.3,0,0.3v5h-5.7V16.1h28.3v12.1H129.8z"/>
<path d="M137.3,43.2v-5.3h2.9c0.9,0,1.2-0.5,1.2-1.2V22.3c0-0.5-0.3-1.2-1.2-1.2h-2.9v-5.2h16.3v5.3h-2.9c-0.9,0-1.2,0.5-1.2,1.2V37
	c0,0.5,0.3,1.2,1.2,1.2h2.9v5.1L137.3,43.2z"/>
<path d="M172.6,43.2v-5.3h1.3c0.9,0,1-0.8,0.7-1.3l-3.5-5.2l-3.8,3.1v2.2c0,0.5,0.3,1.2,1.2,1.2h1.7v5.3h-14.6v-5.3h2.5
	c0.9,0,1.2-0.5,1.2-1.2V22.3c0-0.5-0.3-1.2-1.2-1.2h-2.5v-5.2H170v5.3h-1.7c-0.9,0-1.2,0.5-1.2,1.2v6.7l7.9-6.4
	c0.4-0.3,0.4-0.5,0.3-0.8c-0.1-0.3-0.4-0.4-0.7-0.3h-2.1v-5.5h14.9v5.2h-2.3c-1.2,0-2.2,0.4-3.1,1.2l-4.6,3.8l7.2,10.6
	c0.5,0.7,1.3,1.2,2.1,1.2h1.3v5.2L172.6,43.2L172.6,43.2z"/>
<path d="M190,43.2v-5.3h2.5c0.9,0,1.2-0.5,1.2-1.2V22.3c0-0.5-0.3-1.2-1.2-1.2H190v-5.2h27.7v10.5h-5.3l-0.3-3.4
	c-0.1-1-0.4-1.9-2.1-1.9h-8.2v6h2.2c0.7,0,1-0.5,1.2-1.2l0.3-1.8h3.8v9.7h-3.9l-0.3-1.6c-0.1-0.5-0.4-1-1-1H202V36
	c0,1.2,0.5,1.6,1.6,1.6h5.7c2.2,0,3.1-1.2,3.4-2.9l0.3-3.4h5.5v11.6h-28.1V43C190.4,43.2,190,43.2,190,43.2z"/>
<path d="M250.3,21.3c-0.9,0-1.2,0.5-1.2,1.2v20.8h-6.7L230,27.6v9.3c0,0.5,0.3,1.2,1.2,1.2h2.5v5.2H220V38h2.5
	c0.9,0,1.2-0.5,1.2-1.2V22.3c0-0.5-0.3-1.2-1.2-1.2H220v-5.2h11.4l11.4,14.5v-8.1c0-0.5-0.3-1.2-1.2-1.2h-2.5v-5.2h13.6v5.3
	L250.3,21.3L250.3,21.3z"/>
<rect x="257.7" y="5.3" class="st0" width="48.6" height="48.6"/>
<g>
	<path class="st1" d="M272.3,34.7v-3.6h1.7c0.6,0,0.8-0.4,0.8-0.8v-10c0-0.4-0.2-0.8-0.8-0.8h-1.7v-3.6h19.1v7.3h-3.6l-0.2-2.3
		c-0.1-0.7-0.3-1.3-1.4-1.3h-5.7v4.1h1.5c0.5,0,0.7-0.4,0.8-0.8l0.2-1.2h2.6v6.6h-2.7l-0.2-1.1c-0.1-0.4-0.2-0.7-0.7-0.7h-1.5v3.3
		c0,0.8,0.4,1.1,1.1,1.1h3.9c1.5,0,2.2-0.8,2.3-2l0.2-2.3h3.8v8h-19.4L272.3,34.7C272.6,34.7,272.3,34.7,272.3,34.7z"/>
	<g>
		<path class="st1" d="M278.4,43.2H277l-0.6-1.5h-2.6l-0.5,1.5h-1.4l2.6-6.6h1.4L278.4,43.2z M276,40.6l-0.9-2.4l-0.9,2.4H276z"/>
		<path class="st1" d="M280.1,43.2l-2.4-6.6h1.4l1.7,4.9l1.6-4.9h1.4l-2.4,6.6H280.1z"/>
		<path class="st1" d="M284.5,43.2v-6.6h1.3v6.6H284.5z"/>
		<path class="st1" d="M286.8,41.1l1.3-0.1c0.1,0.4,0.2,0.8,0.5,1c0.2,0.2,0.6,0.3,1,0.3s0.8-0.1,1-0.3s0.3-0.4,0.3-0.6
			c0-0.2,0-0.3-0.1-0.4c-0.1-0.1-0.3-0.2-0.5-0.3s-0.5-0.1-1.1-0.3c-0.7-0.2-1.2-0.4-1.5-0.7c-0.4-0.4-0.6-0.8-0.6-1.3
			c0-0.3,0.1-0.6,0.3-0.9c0.2-0.3,0.5-0.5,0.8-0.7s0.8-0.2,1.3-0.2c0.8,0,1.4,0.2,1.9,0.5c0.4,0.4,0.6,0.8,0.7,1.4l-1.3,0.1
			c-0.1-0.3-0.2-0.6-0.4-0.7c-0.2-0.1-0.5-0.2-0.8-0.2c-0.4,0-0.7,0.1-0.9,0.2c-0.1,0.1-0.2,0.2-0.2,0.4s0.1,0.3,0.2,0.4
			c0.2,0.1,0.6,0.3,1.2,0.4s1.1,0.3,1.4,0.5s0.6,0.4,0.7,0.7c0.2,0.3,0.3,0.6,0.3,1s-0.1,0.7-0.3,1.1c-0.2,0.3-0.5,0.6-0.9,0.7
			c-0.4,0.2-0.9,0.2-1.4,0.2c-0.8,0-1.5-0.2-1.9-0.6C287.2,42.4,286.9,41.8,286.8,41.1z"/>
	</g>
</g>
</svg>
