<?xml version="1.0" encoding="utf-8"?>
<!-- Generator: Adobe Illustrator 21.1.0, SVG Export Plug-In . SVG Version: 6.00 Build 0)  -->
<svg version="1.1" id="Layer_1" xmlns="http://www.w3.org/2000/svg" xmlns:xlink="http://www.w3.org/1999/xlink" x="0px" y="0px"
	 viewBox="0 0 300 100" style="enable-background:new 0 0 300 100;" xml:space="preserve">
<style type="text/css">
	.st0{fill:#ED1C24;}
	.st1{fill:#FFFFFF;}
</style>
<g>
	<rect x="10.4" y="69.8" class="st0" width="279.3" height="6.2"/>
	<g>
		<path class="st1" d="M30.1,52.4h-6.7v3.9c0,0.6,0.3,1.3,1.3,1.3h5.1v5.9H10.3v-5.9h2.8c1,0,1.3-0.6,1.3-1.3V39.8
			c0-0.6-0.3-1.3-1.3-1.3h-2.8v-5.8h20.4c6.7,0,11.4,4,11.4,9.9C42,48.8,37.7,52.4,30.1,52.4z M28.9,38.7h-5.4v7.8h5.2
			c2.5,0,4.2-1.5,4.2-3.8C32.9,40.6,31.1,38.8,28.9,38.7C28.9,38.7,28.9,38.7,28.9,38.7z"/>
		<path class="st1" d="M58.7,64.1C47.3,64.1,43,57.9,43,47.6c0-8,4.6-15.6,15.6-15.6c10.4,0,16.1,5.3,16.1,15.7S68.7,64.1,58.7,64.1
			z M58.7,37.8c-5.2,0-6.1,3.9-6.1,10.6c0,5.3,0.8,9.5,6.1,9.5c4.7,0,6.1-3.8,6.1-9.4C64.8,41.5,63.8,37.8,58.7,37.8z"/>
		<path class="st1" d="M75.4,63.2v-5.9h2.8c1,0,1.3-0.6,1.3-1.3V39.8c0-0.6-0.3-1.3-1.3-1.3h-2.8v-5.8h18.2v5.9h-3.7
			c-1,0-1.3,0.6-1.3,1.3v15.4c0,1.3,0.6,2,3,2c3.9,0,6.2-0.8,6.4-5.2l0.1-2.3h6.2v13.4L75.4,63.2L75.4,63.2z"/>
		<path class="st1" d="M106.4,63.2v-5.9h3.3c1,0,1.3-0.6,1.3-1.3V39.8c0-0.6-0.3-1.3-1.3-1.3h-3.3v-5.8h18.3v5.9h-3.3
			c-1,0-1.3,0.6-1.3,1.3v16.3c0,0.6,0.3,1.3,1.3,1.3h3.3v5.9L106.4,63.2z"/>
		<path class="st1" d="M151.9,46.4v-5.6c0.1-1.1-0.8-2-1.8-2c-0.1,0-0.1,0-0.3,0h-2.8v17.4c0,0.6,0.3,1.3,1.3,1.3h3.7v5.9h-19.1
			v-5.9h3.7c1,0,1.3-0.6,1.3-1.3V38.7h-2.8c-1.1-0.1-1.9,0.8-2,1.8c0,0.1,0,0.3,0,0.3v5.6h-6.4V32.9h31.7v13.5H151.9z"/>
		<path class="st1" d="M160.4,63.2v-5.9h3.3c1,0,1.3-0.6,1.3-1.3V39.8c0-0.6-0.3-1.3-1.3-1.3h-3.3v-5.8h18.3v5.9h-3.3
			c-1,0-1.3,0.6-1.3,1.3v16.3c0,0.6,0.3,1.3,1.3,1.3h3.3v5.9L160.4,63.2z"/>
		<path class="st1" d="M199.9,63.2v-5.9h1.4c1,0,1.1-0.9,0.8-1.5l-3.9-5.8l-4.3,3.5V56c0,0.6,0.3,1.3,1.3,1.3h1.9v5.9h-16.4v-5.9
			h2.8c1,0,1.3-0.6,1.3-1.3V39.8c0-0.6-0.3-1.3-1.3-1.3h-2.8v-5.8H197v5.9h-1.9c-1,0-1.3,0.6-1.3,1.3v7.5l8.9-7.2
			c0.4-0.3,0.4-0.6,0.3-0.9c-0.1-0.3-0.4-0.4-0.8-0.3h-2.3v-6.2h16.7v5.9H214c-1.3,0-2.5,0.5-3.5,1.3l-5.1,4.2l8.1,11.9
			c0.6,0.8,1.5,1.3,2.4,1.3h1.5v5.9L199.9,63.2L199.9,63.2z"/>
		<path class="st1" d="M219.4,63.2v-5.9h2.8c1,0,1.3-0.6,1.3-1.3V39.8c0-0.6-0.3-1.3-1.3-1.3h-2.8v-5.8h31v11.8h-5.9l-0.3-3.8
			c-0.1-1.1-0.5-2.1-2.3-2.1h-9.2v6.7h2.5c0.8,0,1.1-0.6,1.3-1.3l0.3-2h4.3v10.9h-4.4l-0.3-1.8c-0.1-0.6-0.4-1.1-1.1-1.1h-2.5v5.4
			c0,1.3,0.6,1.8,1.8,1.8h6.4c2.5,0,3.5-1.3,3.8-3.3l0.3-3.8h6.2v13h-31.5v0.1H219.4z"/>
		<path class="st1" d="M286.9,38.7c-1,0-1.3,0.6-1.3,1.3v23.4h-7.5l-14-17.6v10.4c0,0.6,0.3,1.3,1.3,1.3h2.8v5.9H253v-5.9h2.8
			c1,0,1.3-0.6,1.3-1.3V39.8c0-0.6-0.3-1.3-1.3-1.3H253v-5.8h12.8l12.8,16.2v-9.1c0-0.6-0.3-1.3-1.3-1.3h-2.8v-5.8h15.2v5.9H286.9
			L286.9,38.7z"/>
	</g>
</g>
</svg>
