<?xml version="1.0" encoding="utf-8"?>
<!-- Generator: Adobe Illustrator 21.1.0, SVG Export Plug-In . SVG Version: 6.00 Build 0)  -->
<svg version="1.1" id="Layer_1" xmlns="http://www.w3.org/2000/svg" xmlns:xlink="http://www.w3.org/1999/xlink" x="0px" y="0px"
	 viewBox="0 0 50 50" style="enable-background:new 0 0 50 50;" xml:space="preserve">
<style type="text/css">
	.st0{fill:#ED1C24;}
</style>
<title>PolitikenLogoP</title>
<rect x="10" y="43.1" class="st0" width="30" height="5.9"/>
<path d="M29,28.8h-6.4v3.8c-0.1,0.6,0.3,1.1,0.9,1.2c0.1,0,0.2,0,0.3,0h4.8v5.7H10v-5.7h2.7c0.6,0.1,1.1-0.3,1.2-0.9
	c0-0.1,0-0.2,0-0.3V16.8c0.1-0.6-0.3-1.1-0.9-1.2c-0.1,0-0.2,0-0.3,0H10V10h19.5c6.4,0,10.9,3.9,10.9,9.5
	C40.4,25.4,36.3,28.8,29,28.8z M27.8,15.7h-5.2v7.5h5c2.4,0,4-1.5,4-3.6S30,15.8,27.8,15.7C27.9,15.7,27.9,15.7,27.8,15.7L27.8,15.7
	z"/>
</svg>
