<?xml version="1.0" encoding="utf-8"?>
<!-- Generator: Adobe Illustrator 21.1.0, SVG Export Plug-In . SVG Version: 6.00 Build 0)  -->
<svg version="1.1" id="Lag_1" xmlns="http://www.w3.org/2000/svg" xmlns:xlink="http://www.w3.org/1999/xlink" x="0px" y="0px"
	 viewBox="0 0 233 43.5" style="enable-background:new 0 0 233 43.5;" xml:space="preserve">
<style type="text/css">
	.st0{fill:#ED1C24;}
	.st1{fill:#FFFFFF;}
</style>
<title>PolitikenLogo</title>
<rect x="6.1" y="34.6" class="st0" width="220.9" height="4.9"/>
<g>
	<path class="st1" d="M21.7,20.8h-5.3v3.1c0,0.5,0.2,1,1,1h4v4.7H6v-4.7h2.2c0.8,0,1-0.5,1-1V10.9c0-0.5-0.2-1-1-1H6V5.3h16.1
		c5.3,0,9,3.2,9,7.8C31.1,18,27.7,20.8,21.7,20.8z M20.7,10h-4.3v6.2h4.1c2,0,3.3-1.2,3.3-3c0.1-1.7-1.3-3.1-3.1-3.2
		C20.7,10,20.7,10,20.7,10z"/>
	<path class="st1" d="M44.3,30.1c-9,0-12.4-4.9-12.4-13.1c0-6.3,3.6-12.3,12.3-12.3c8.2,0,12.7,4.2,12.7,12.4S52.2,30.1,44.3,30.1z
		 M44.3,9.3c-4.1,0-4.8,3.1-4.8,8.4c0,4.2,0.6,7.5,4.8,7.5c3.7,0,4.8-3,4.8-7.4C49.1,12.2,48.3,9.3,44.3,9.3z"/>
	<path class="st1" d="M57.5,29.4v-4.7h2.2c0.8,0,1-0.5,1-1V10.9c0-0.5-0.2-1-1-1h-2.2V5.3h14.4V10H69c-0.8,0-1,0.5-1,1v12.2
		c0,1,0.5,1.6,2.4,1.6c3.1,0,4.9-0.6,5.1-4.1l0.1-1.8h4.9v10.6L57.5,29.4L57.5,29.4z"/>
	<path class="st1" d="M82,29.4v-4.7h2.6c0.8,0,1-0.5,1-1V10.9c0-0.5-0.2-1-1-1H82V5.3h14.5V10h-2.6c-0.8,0-1,0.5-1,1v12.9
		c0,0.5,0.2,1,1,1h2.6v4.7L82,29.4z"/>
	<path class="st1" d="M118,16.1v-4.4c0.1-0.9-0.6-1.6-1.4-1.6c-0.1,0-0.1,0-0.2,0h-2.2v13.8c0,0.5,0.2,1,1,1h2.9v4.7H103v-4.7h2.9
		c0.8,0,1-0.5,1-1V10h-2.2c-0.9-0.1-1.5,0.6-1.6,1.4c0,0.1,0,0.2,0,0.2v4.4H98V5.4h25.1v10.7H118z"/>
	<path class="st1" d="M124.7,29.4v-4.7h2.6c0.8,0,1-0.5,1-1V10.9c0-0.5-0.2-1-1-1h-2.6V5.3h14.5V10h-2.6c-0.8,0-1,0.5-1,1v12.9
		c0,0.5,0.2,1,1,1h2.6v4.7L124.7,29.4z"/>
	<path class="st1" d="M156,29.4v-4.7h1.1c0.8,0,0.9-0.7,0.6-1.2l-3.1-4.6l-3.4,2.8v2c0,0.5,0.2,1,1,1h1.5v4.7h-13v-4.7h2.2
		c0.8,0,1-0.5,1-1V10.9c0-0.5-0.2-1-1-1h-2.2V5.3h13V10h-1.5c-0.8,0-1,0.5-1,1v5.9l7-5.7c0.3-0.2,0.3-0.5,0.2-0.7
		c-0.1-0.2-0.3-0.3-0.6-0.2h-1.8V5.4h13.2v4.7h-2.1c-1,0-2,0.4-2.8,1l-4,3.3l6.4,9.4c0.5,0.6,1.2,1,1.9,1h1.2v4.7L156,29.4L156,29.4
		z"/>
	<path class="st1" d="M171.4,29.4v-4.7h2.2c0.8,0,1-0.5,1-1V10.9c0-0.5-0.2-1-1-1h-2.2V5.3h24.5v9.3h-4.7l-0.2-3
		c-0.1-0.9-0.4-1.7-1.8-1.7h-7.3v5.3h2c0.6,0,0.9-0.5,1-1l0.2-1.6h3.4v8.6H185l-0.2-1.4c-0.1-0.5-0.3-0.9-0.9-0.9h-2v4.3
		c0,1,0.5,1.4,1.4,1.4h5.1c2,0,2.8-1,3-2.6l0.2-3h4.9v10.3h-24.9V29.4z"/>
	<path class="st1" d="M224.8,10c-0.8,0-1,0.5-1,1v18.5h-5.9l-11.1-13.9v8.2c0,0.5,0.2,1,1,1h2.2v4.7h-12v-4.7h2.2c0.8,0,1-0.5,1-1
		V10.9c0-0.5-0.2-1-1-1H198V5.3h10.1l10.1,12.8v-7.2c0-0.5-0.2-1-1-1H215V5.3h12V10L224.8,10L224.8,10z"/>
</g>
</svg>
