<?xml version="1.0" encoding="utf-8"?>
<!-- Generator: Adobe Illustrator 21.1.0, SVG Export Plug-In . SVG Version: 6.00 Build 0)  -->
<svg version="1.1" id="Layer_1" xmlns="http://www.w3.org/2000/svg" xmlns:xlink="http://www.w3.org/1999/xlink" x="0px" y="0px"
	 viewBox="0 0 116 20" style="enable-background:new 0 0 116 20;" xml:space="preserve">
<style type="text/css">
	.st0{fill:#FFFF00;stroke:#000000;stroke-width:0.5;stroke-miterlimit:10;}
	.st1{fill:#FFFF00;}
	.st2{fill:none;stroke:#000000;stroke-width:0.5;stroke-miterlimit:10;}
</style>
<polygon id="star0" class="st0" points="16.7,3.5 18.5,8.5 23.7,8.6 19.5,11.8 21.1,16.9 16.7,13.9 12.5,16.9 13.9,11.8 9.8,8.6
	15.1,8.5 "/>
<polygon id="star1" class="st0" points="39.1,3.5 40.8,8.5 46.1,8.6 41.9,11.8 43.4,16.9 39.1,13.9 34.8,16.9 36.3,11.8 32.1,8.6
	37.4,8.5 "/>
<polygon id="star2" class="st0" points="62,3.5 63.7,8.5 69,8.6 64.8,11.8 66.3,16.9 62,13.9 57.6,16.9 59.2,11.8 55,8.6 60.2,8.5
	"/>
<polygon id="star3" class="st0" points="83.8,3.5 85.6,8.5 90.8,8.6 86.6,11.8 88.1,16.9 83.8,13.9 79.5,16.9 81,11.8 76.8,8.6
	82.1,8.5 "/>
<polyline id="star4_3_" class="st1" points="107.3,13.9 102.9,16.9 104.5,11.8 100.2,8.6 105.5,8.5 107.3,3.5 "/>
<polygon id="star4_1_" class="st2" points="107.3,3.5 108.9,8.5 114.3,8.6 110.1,11.8 111.5,16.9 107.3,13.9 102.9,16.9 104.5,11.8
	100.2,8.6 105.5,8.5 "/>
</svg>
