<?xml version="1.0" encoding="utf-8"?>
<!-- Generator: Adobe Illustrator 21.1.0, SVG Export Plug-In . SVG Version: 6.00 Build 0)  -->
<svg version="1.1" id="Layer_1" xmlns="http://www.w3.org/2000/svg" xmlns:xlink="http://www.w3.org/1999/xlink" x="0px" y="0px"
	 viewBox="0 0 116 20" style="enable-background:new 0 0 116 20;" xml:space="preserve">
<style type="text/css">
	.st0{fill:#FFFF00;stroke:#000000;stroke-width:0.5;stroke-miterlimit:10;}
	.st1{fill:#FFFFFF;stroke:#000000;stroke-width:0.5;stroke-miterlimit:10;}
</style>
<polygon id="star0" class="st0" points="8.7,3.5 10.5,8.5 15.7,8.6 11.5,11.8 13.1,16.9 8.7,13.9 4.5,16.9 5.9,11.8 1.8,8.6
	7.1,8.5 "/>
<polygon id="star1" class="st0" points="31.1,3.5 32.8,8.5 38.1,8.6 33.9,11.8 35.4,16.9 31.1,13.9 26.8,16.9 28.3,11.8 24.1,8.6
	29.4,8.5 "/>
<polygon id="star2" class="st0" points="54,3.5 55.7,8.5 61,8.6 56.8,11.8 58.3,16.9 54,13.9 49.6,16.9 51.2,11.8 47,8.6 52.2,8.5
	"/>
<polygon id="star3" class="st0" points="75.8,3.5 77.6,8.5 82.8,8.6 78.6,11.8 80.1,16.9 75.8,13.9 71.5,16.9 73,11.8 68.8,8.6
	74.1,8.5 "/>
<polygon id="star4_1_" class="st1" points="99.3,3.5 100.9,8.5 106.3,8.6 102.1,11.8 103.5,16.9 99.3,13.9 94.9,16.9 96.5,11.8
	92.2,8.6 97.5,8.5 "/>
</svg>
